<?xml version="1.0" standalone="no"?>
<!DOCTYPE svg PUBLIC "-//W3C//DTD SVG 1.1//EN" "http://www.w3.org/Graphics/SVG/1.1/DTD/svg11.dtd">
<svg xmlns="http://www.w3.org/2000/svg">
<metadata>Copyright (C) 2024 by original authors @ fontello.com</metadata>
<defs>
<font id="fontello" horiz-adv-x="1000" >
<font-face font-family="fontello" font-weight="400" font-stretch="normal" units-per-em="1000" ascent="850" descent="-150" />
<missing-glyph horiz-adv-x="1000" />
<glyph glyph-name="list" unicode="&#xe800;" d="M156 100a31 31 0 0 0 32 31h625a31 31 0 0 0 0-62h-625a31 31 0 0 0-32 31z m0 250a31 31 0 0 0 32 31h625a31 31 0 0 0 0-62h-625a31 31 0 0 0-32 31z m0 250a31 31 0 0 0 32 31h625a31 31 0 0 0 0-62h-625a31 31 0 0 0-32 31z" horiz-adv-x="1000" />

<glyph glyph-name="newspaper" unicode="&#xe801;" d="M0 694a94 94 0 0 0 94 94h687a94 94 0 0 0 94-94v-658c0-19-3-41-15-61h46a31 31 0 0 1 32 31v563a31 31 0 0 0 62 0v-563a94 94 0 0 0-94-94h-812a94 94 0 0 0-94 94v688z m750-719c23 0 41 13 53 28 6 6 10 17 10 33v658a31 31 0 0 1-32 31h-687a31 31 0 0 1-31-31v-688c0-17 13-31 31-31h656z m-625 688h625v-125h-625v125z m0-188h250v-187h-250v187z m0-250h250v-62h-250v62z m0-125h250v-62h-250v62z m313 375h125v-62h-125v62z m187 0h125v-62h-125v62z m-187-125h125v-62h-125v62z m187 0h125v-62h-125v62z m-187-125h125v-62h-125v62z m187 0h125v-62h-125v62z m-187-125h125v-62h-125v62z m187 0h125v-62h-125v62z" horiz-adv-x="1000" />

<glyph glyph-name="pen" unicode="&#xe802;" d="M844 800l9 10a75 75 0 1 0 107-107l-10-9a94 94 0 0 0-3-129l-644-643a31 31 0 0 0-14-9l-250-62a31 31 0 0 0-38 38l62 250a31 31 0 0 0 9 14l602 603a31 31 0 0 1-40-4l-206-205a31 31 0 1 0-44 44l206 206a94 94 0 0 0 129 3 94 94 0 0 0 125 0z m-41-48a31 31 0 0 1-44 0l-637-637-48-191 191 48 638 637a31 31 0 0 1 0 44l-100 99z" horiz-adv-x="1000" />

<glyph glyph-name="pen-fill" unicode="&#xe803;" d="M844 800l9 10a75 75 0 1 0 107-107l-10-9a94 94 0 0 0-3-129l-644-643a31 31 0 0 0-14-9l-250-62a31 31 0 0 0-38 38l62 250a31 31 0 0 0 9 14l602 603a31 31 0 0 1-40-4l-206-205a31 31 0 1 0-44 44l206 206a94 94 0 0 0 129 3 94 94 0 0 0 125 0z" horiz-adv-x="1000" />

<glyph glyph-name="plus-circle" unicode="&#xe804;" d="M500-88a438 438 0 1 0 0 876 438 438 0 0 0 0-876z m0-62a500 500 0 1 1 0 1000 500 500 0 0 1 0-1000z m0 750a31 31 0 0 0 31-31v-188h188a31 31 0 0 0 0-62h-188v-188a31 31 0 0 0-62 0v188h-188a31 31 0 0 0 0 62h188v188a31 31 0 0 0 31 31z" horiz-adv-x="1000" />

<glyph glyph-name="plus-circle-fill" unicode="&#xe805;" d="M1000 350a500 500 0 1 0-1000 0 500 500 0 0 0 1000 0z m-469 219a31 31 0 0 1-62 0v-188h-188a31 31 0 0 1 0-62h188v-188a31 31 0 0 1 62 0v188h188a31 31 0 0 1 0 62h-188v188z" horiz-adv-x="1000" />

<glyph glyph-name="plus-square" unicode="&#xe806;" d="M875 788a63 63 0 0 0 63-63v-750a63 63 0 0 0-63-63h-750a63 63 0 0 0-62 63v750a63 63 0 0 0 62 63h750z m-750 62a125 125 0 0 1-125-125v-750a125 125 0 0 1 125-125h750a125 125 0 0 1 125 125v750a125 125 0 0 1-125 125h-750z m375-250a31 31 0 0 0 31-31v-188h188a31 31 0 0 0 0-62h-188v-188a31 31 0 0 0-62 0v188h-188a31 31 0 0 0 0 62h188v188a31 31 0 0 0 31 31z" horiz-adv-x="1000" />

<glyph glyph-name="search" unicode="&#xe807;" d="M734 204a406 406 0 1 1-87-88h0c1-2 3-5 6-7l240-241a63 63 0 0 1 89 89l-241 240a63 63 0 0 1-7 7z m16 240a344 344 0 1 0-687 0 344 344 0 0 0 687 0z" horiz-adv-x="1000" />

<glyph glyph-name="stickies" unicode="&#xe808;" d="M94 850a94 94 0 0 1-94-94v-718a63 63 0 0 1 63-63v781a31 31 0 0 0 31 32h781a63 63 0 0 1-62 62z m125-125a94 94 0 0 1-94-94v-687a94 94 0 0 1 94-94h380a94 94 0 0 1 66 27l308 308a94 94 0 0 1 27 66v380a94 94 0 0 1-94 94z m-31-94a31 31 0 0 0 31 32h687a31 31 0 0 0 32-32v-343h-282a94 94 0 0 1-93-94v-282h-344a31 31 0 0 0-31 32z m437-706v269a31 31 0 0 0 31 31h269z" horiz-adv-x="1000" />

<glyph glyph-name="stickies-fill" unicode="&#xe809;" d="M0 756v-718a63 63 0 0 1 63-63v781a31 31 0 0 0 31 32h781a63 63 0 0 1-62 62h-719a94 94 0 0 1-94-94m219-31a94 94 0 0 1-94-94v-687a94 94 0 0 1 94-94h380a94 94 0 0 1 66 27l308 308a94 94 0 0 1 27 66v380a94 94 0 0 1-94 94z m375-531a63 63 0 0 0 62 62h275a16 16 0 0 0 11-26l-322-322a16 16 0 0 0-26 11z" horiz-adv-x="1000" />

<glyph glyph-name="sticky" unicode="&#xe80a;" d="M156 788a94 94 0 0 1-93-94v-688a94 94 0 0 1 93-94h381a94 94 0 0 1 66 28l307 307a94 94 0 0 1 28 66v381a94 94 0 0 1-94 94z m-31-94a31 31 0 0 0 31 31h688a31 31 0 0 0 31-31v-344h-281a94 94 0 0 1-94-94v-281h-344a31 31 0 0 0-31 31z m438-706v268a31 31 0 0 0 31 32h268z" horiz-adv-x="1000" />

<glyph glyph-name="sticky-fill" unicode="&#xe80b;" d="M156 788a94 94 0 0 1-93-94v-688a94 94 0 0 1 93-94h381a94 94 0 0 1 66 28l307 307a94 94 0 0 1 28 66v381a94 94 0 0 1-94 94z m375-532a63 63 0 0 0 63 63h275a16 16 0 0 0 11-27l-322-322a16 16 0 0 0-27 11z" horiz-adv-x="1000" />

<glyph glyph-name="telephone" unicode="&#xe80c;" d="M228 767a42 42 0 0 1-63 4l-65-65c-30-30-41-73-28-110a1098 1098 0 0 1 261-413 1098 1098 0 0 1 413-261c37-13 80-2 110 28l65 65a42 42 0 0 1-4 63l-144 112a42 42 0 0 1-36 8l-137-34a109 109 0 0 0-104 29l-153 153a109 109 0 0 0-29 104l34 137a42 42 0 0 1-7 36l-113 144z m-110 51a109 109 0 0 0 163-10l112-144c21-27 28-61 20-94l-34-136a42 42 0 0 1 11-41l153-153a42 42 0 0 1 41-11l136 34a109 109 0 0 0 94-20l144-112c52-40 56-117 10-163l-65-65c-46-46-115-66-179-44a1165 1165 0 0 0-438 277 1165 1165 0 0 0-277 438c-22 64-2 133 44 179l65 65z" horiz-adv-x="1000" />

<glyph glyph-name="telephone-fill" unicode="&#xe80d;" d="M118 818a109 109 0 0 0 163-10l112-144c21-27 28-61 20-94l-34-136a42 42 0 0 1 11-41l153-153a42 42 0 0 1 41-11l136 34a109 109 0 0 0 94-20l144-112c52-40 56-117 10-163l-65-65c-46-46-115-66-179-44a1165 1165 0 0 0-438 277 1165 1165 0 0 0-277 438c-22 64-2 133 44 179l65 65z" horiz-adv-x="1000" />

<glyph glyph-name="trash" unicode="&#xe80e;" d="M344 506a31 31 0 0 0 31-31v-375a31 31 0 0 0-62 0v375a31 31 0 0 0 31 31z m156 0a31 31 0 0 0 31-31v-375a31 31 0 0 0-62 0v375a31 31 0 0 0 31 31z m188-31a31 31 0 0 1-63 0v-375a31 31 0 0 1 63 0v375z m218 188a63 63 0 0 0-62-63h-31v-562a125 125 0 0 0-125-126h-375a125 125 0 0 0-125 126v562h-32a63 63 0 0 0-62 63v62a63 63 0 0 0 62 63h219a63 63 0 0 0 63 62h125a63 63 0 0 0 62-62h219a63 63 0 0 0 62-63v-62z m-649-63l-7-4v-558a63 63 0 0 1 63-63h375a63 63 0 0 1 62 63v558l-7 4h-486z m-101 63h688v62h-688v-62z" horiz-adv-x="1000" />

<glyph glyph-name="trash-fill" unicode="&#xe80f;" d="M156 788a63 63 0 0 1-62-63v-62a63 63 0 0 1 62-63h32v-562a125 125 0 0 1 125-126h375a125 125 0 0 1 125 126v562h31a63 63 0 0 1 62 63v62a63 63 0 0 1-62 63h-219a63 63 0 0 1-62 62h-125a63 63 0 0 1-63-62h-219z m188-250a31 31 0 0 0 31-32v-437a31 31 0 0 0-62 0v437a31 31 0 0 0 31 32z m156 0a31 31 0 0 0 31-32v-437a31 31 0 0 0-62 0v437a31 31 0 0 0 31 32z m188-32v-437a31 31 0 0 0-63 0v437a31 31 0 0 0 63 0z" horiz-adv-x="1000" />

<glyph glyph-name="x" unicode="&#xe810;" d="M290 560a31 31 0 0 0 45 0l165-166 165 166a31 31 0 0 0 45-45l-166-165 166-165a31 31 0 0 0-45-45l-165 166-165-166a31 31 0 0 0-45 45l166 165-166 165a31 31 0 0 0 0 45z" horiz-adv-x="1000" />

<glyph glyph-name="x-circle" unicode="&#xe811;" d="M500-88a438 438 0 1 0 0 876 438 438 0 0 0 0-876z m0-62a500 500 0 1 1 0 1000 500 500 0 0 1 0-1000z m-210 710a31 31 0 0 0 45 0l165-166 165 166a31 31 0 0 0 45-45l-166-165 166-165a31 31 0 0 0-45-45l-165 166-165-166a31 31 0 0 0-45 45l166 165-166 165a31 31 0 0 0 0 45z" horiz-adv-x="1000" />

<glyph glyph-name="x-circle-fill" unicode="&#xe812;" d="M1000 350a500 500 0 1 0-1000 0 500 500 0 0 0 1000 0z m-665 210a31 31 0 1 1-45-45l166-165-166-165a31 31 0 0 1 45-45l165 166 165-166a31 31 0 0 1 45 45l-166 165 166 165a31 31 0 0 1-45 45l-165-166-165 166z" horiz-adv-x="1000" />

<glyph glyph-name="x-lg" unicode="&#xe813;" d="M134 672a31 31 0 1 0 44 44l322-322 322 322a31 31 0 0 0 44-44l-322-322 322-322a31 31 0 0 0-44-44l-322 322-322-322a31 31 0 0 0-44 44l322 322-322 322z" horiz-adv-x="1000" />

<glyph glyph-name="arrow-clockwise" unicode="&#xe814;" d="M500 663a313 313 0 1 1 284-183 31 31 0 0 0 57 26 375 375 0 1 0-341 219v-62z m0-92v246a16 16 0 0 0 26 12l147-123c8-6 8-18 0-24l-147-123a16 16 0 0 0-26 12z" horiz-adv-x="1000" />

<glyph glyph-name="arrow-left" unicode="&#xe815;" d="M938 350a31 31 0 0 1-32 31h-737l197 197a31 31 0 1 1-44 44l-250-250a31 31 0 0 1 0-44l250-250a31 31 0 0 1 44 44l-197 197h737a31 31 0 0 1 32 31z" horiz-adv-x="1000" />

<glyph glyph-name="arrow-left-circle-fill" unicode="&#xe816;" d="M500 850a500 500 0 1 1 0-1000 500 500 0 0 1 0 1000z m219-469a31 31 0 0 0 0-62h-362l134-134a31 31 0 0 0-44-45l-188 188a31 31 0 0 0 0 44l188 188a31 31 0 1 0 44-45l-134-134h362z" horiz-adv-x="1000" />

<glyph glyph-name="arrow-right" unicode="&#xe817;" d="M63 350a31 31 0 0 0 31 31h737l-197 197a31 31 0 0 0 44 44l250-250a31 31 0 0 0 0-44l-250-250a31 31 0 0 0-44 44l197 197h-737a31 31 0 0 0-31 31z" horiz-adv-x="1000" />

<glyph glyph-name="arrow-right-circle-fill" unicode="&#xe818;" d="M500 850a500 500 0 1 0 0-1000 500 500 0 0 0 0 1000z m-219-469a31 31 0 0 1 0-62h362l-134-134a31 31 0 0 1 44-45l188 188a31 31 0 0 1 0 44l-188 188a31 31 0 1 1-44-45l134-134h-362z" horiz-adv-x="1000" />

<glyph glyph-name="arrows-angle-expand" unicode="&#xe819;" d="M364 214a31 31 0 0 1-44 0l-256-256v173a31 31 0 0 1-62 0v-248a31 31 0 0 1 31-31h248a31 31 0 0 1 0 62h-173l256 256a31 31 0 0 1 0 44z m272 272a31 31 0 0 1 44 0l256 256v-173a31 31 0 1 1 62 0v248a31 31 0 0 1-31 31h-248a31 31 0 0 1 0-62h173l-256-256a31 31 0 0 1 0-44z" horiz-adv-x="1000" />

<glyph glyph-name="building" unicode="&#xe81a;" d="M250 694a31 31 0 0 0 31 31h63a31 31 0 0 0 31-31v-63a31 31 0 0 0-31-31h-63a31 31 0 0 0-31 31v63z m188 0a31 31 0 0 0 31 31h62a31 31 0 0 0 32-31v-63a31 31 0 0 0-32-31h-62a31 31 0 0 0-31 31v63z m218 31a31 31 0 0 1-31-31v-63a31 31 0 0 1 31-31h63a31 31 0 0 1 31 31v63a31 31 0 0 1-31 31h-63z m-406-219a31 31 0 0 0 31 32h63a31 31 0 0 0 31-32v-62a31 31 0 0 0-31-31h-63a31 31 0 0 0-31 31v62z m219 32a31 31 0 0 1-31-32v-62a31 31 0 0 1 31-31h62a31 31 0 0 1 32 31v62a31 31 0 0 1-32 32h-62z m156-32a31 31 0 0 0 31 32h63a31 31 0 0 0 31-32v-62a31 31 0 0 0-31-31h-63a31 31 0 0 0-31 31v62z m-344-156a31 31 0 0 1-31-31v-63a31 31 0 0 1 31-31h63a31 31 0 0 1 31 31v63a31 31 0 0 1-31 31h-63z m157-31a31 31 0 0 0 31 31h62a31 31 0 0 0 32-31v-63a31 31 0 0 0-32-31h-62a31 31 0 0 0-31 31v63z m218 31a31 31 0 0 1-31-31v-63a31 31 0 0 1 31-31h63a31 31 0 0 1 31 31v63a31 31 0 0 1-31 31h-63z m-531 438a63 63 0 0 0 63 62h625a63 63 0 0 0 62-62v-876a63 63 0 0 0-62-62h-625a63 63 0 0 0-63 62v876z m688 0h-625v-876h187v157a31 31 0 0 0 31 31h188a31 31 0 0 0 31-31v-157h188v876z" horiz-adv-x="1000" />

<glyph glyph-name="calendar2-week" unicode="&#xe81b;" d="M219 850a31 31 0 0 0 31-31v-31h500v31a31 31 0 0 0 63 0v-31h62a125 125 0 0 0 125-125v-688a125 125 0 0 0-125-125h-750a125 125 0 0 0-125 125v688a125 125 0 0 0 125 125h63v31a31 31 0 0 0 31 31z m-94-125a63 63 0 0 1-62-62v-688a63 63 0 0 1 62-63h750a63 63 0 0 1 63 63v688a63 63 0 0 1-63 62h-750z m31-125a31 31 0 0 0 32 31h625a31 31 0 0 0 31-31v-62a31 31 0 0 0-31-32h-625a31 31 0 0 0-32 32v62z m532-219a31 31 0 0 0 31 32h62a31 31 0 0 0 32-32v-62a31 31 0 0 0-32-31h-62a31 31 0 0 0-31 31v62z m-188 0a31 31 0 0 0 31 32h63a31 31 0 0 0 31-32v-62a31 31 0 0 0-31-31h-63a31 31 0 0 0-31 31v62z m-312-187a31 31 0 0 0 31 31h62a31 31 0 0 0 32-31v-63a31 31 0 0 0-32-31h-62a31 31 0 0 0-31 31v63z m187 0a31 31 0 0 0 31 31h63a31 31 0 0 0 31-31v-63a31 31 0 0 0-31-31h-63a31 31 0 0 0-31 31v63z" horiz-adv-x="1000" />

<glyph glyph-name="chevron-bar-expand" unicode="&#xe81c;" d="M228 216a31 31 0 0 0 44 0l228-228 228 228a31 31 0 0 0 44-44l-250-250a31 31 0 0 0-44 0l-250 250a31 31 0 0 0 0 44m0 268a31 31 0 0 1 44 0l228 228 228-228a31 31 0 0 1 44 44l-250 250a31 31 0 0 1-44 0l-250-250a31 31 0 0 1 0-44m-165-134a31 31 0 0 0 31 31h812a31 31 0 0 0 0-62h-812a31 31 0 0 0-31 31" horiz-adv-x="1000" />

<glyph glyph-name="chevron-double-left" unicode="&#xe81d;" d="M522 747a31 31 0 0 0 0-44l-353-353 353-353a31 31 0 0 0-44-44l-375 375a31 31 0 0 0 0 44l375 375a31 31 0 0 0 44 0z m250 0a31 31 0 0 0 0-44l-353-353 353-353a31 31 0 0 0-44-44l-375 375a31 31 0 0 0 0 44l375 375a31 31 0 0 0 44 0z" horiz-adv-x="1000" />

<glyph glyph-name="chevron-double-right" unicode="&#xe81e;" d="M228 747a31 31 0 0 0 44 0l375-375a31 31 0 0 0 0-44l-375-375a31 31 0 0 0-44 44l353 353-353 353a31 31 0 0 0 0 44z m250 0a31 31 0 0 0 44 0l375-375a31 31 0 0 0 0-44l-375-375a31 31 0 0 0-44 44l353 353-353 353a31 31 0 0 0 0 44z" horiz-adv-x="1000" />

<glyph glyph-name="chevron-down" unicode="&#xe81f;" d="M103 560a31 31 0 0 0 44 0l353-353 353 353a31 31 0 0 0 44-45l-375-375a31 31 0 0 0-44 0l-375 375a31 31 0 0 0 0 45z" horiz-adv-x="1000" />

<glyph glyph-name="chevron-left" unicode="&#xe820;" d="M710 747a31 31 0 0 0 0-44l-353-353 353-353a31 31 0 0 0-45-44l-375 375a31 31 0 0 0 0 44l375 375a31 31 0 0 0 45 0z" horiz-adv-x="1000" />

<glyph glyph-name="chevron-right" unicode="&#xe821;" d="M290 747a31 31 0 0 0 45 0l375-375a31 31 0 0 0 0-44l-375-375a31 31 0 0 0-45 44l353 353-353 353a31 31 0 0 0 0 44z" horiz-adv-x="1000" />

<glyph glyph-name="chevron-up" unicode="&#xe822;" d="M478 560a31 31 0 0 0 44 0l375-375a31 31 0 0 0-44-45l-353 353-353-353a31 31 0 0 0-44 45l375 375z" horiz-adv-x="1000" />

<glyph glyph-name="cpu" unicode="&#xe823;" d="M313 850a31 31 0 0 0 31-31v-94h62v94a31 31 0 0 0 63 0v-94h62v94a31 31 0 0 0 63 0v-94h62v94a31 31 0 0 0 63 0v-94a156 156 0 0 0 156-156h94a31 31 0 0 0 0-63h-94v-62h94a31 31 0 0 0 0-63h-94v-62h94a31 31 0 0 0 0-63h-94v-62h94a31 31 0 0 0 0-63h-94a156 156 0 0 0-156-156v-94a31 31 0 0 0-63 0v94h-62v-94a31 31 0 0 0-63 0v94h-62v-94a31 31 0 0 0-63 0v94h-62v-94a31 31 0 0 0-63 0v94a156 156 0 0 0-156 156h-94a31 31 0 0 0 0 63h94v62h-94a31 31 0 0 0 0 63h94v62h-94a31 31 0 0 0 0 63h94v62h-94a31 31 0 0 0 0 63h94a156 156 0 0 0 156 156v94a31 31 0 0 0 32 31m-32-187a94 94 0 0 1-93-94v-438a94 94 0 0 1 93-93h438a94 94 0 0 1 94 93v438a94 94 0 0 1-94 94z m32-219a94 94 0 0 0 93 94h188a94 94 0 0 0 94-94v-188a94 94 0 0 0-94-93h-188a94 94 0 0 0-93 93z m93 31a31 31 0 0 1-31-31v-188a31 31 0 0 1 31-31h188a31 31 0 0 1 31 31v188a31 31 0 0 1-31 31z" horiz-adv-x="1000" />

<glyph glyph-name="cpu-fill" unicode="&#xe824;" d="M406 475a31 31 0 0 1-31-31v-188a31 31 0 0 1 31-31h188a31 31 0 0 1 31 31v188a31 31 0 0 1-31 31z m-62 344a31 31 0 0 1-63 0v-94a156 156 0 0 1-156-156h-94a31 31 0 0 1 0-63h94v-62h-94a31 31 0 0 1 0-63h94v-62h-94a31 31 0 0 1 0-63h94v-62h-94a31 31 0 0 1 0-63h94a156 156 0 0 1 156-156v-94a31 31 0 0 1 63 0v94h62v-94a31 31 0 0 1 63 0v94h62v-94a31 31 0 0 1 63 0v94h62v-94a31 31 0 0 1 63 0v94a156 156 0 0 1 156 156h94a31 31 0 0 1 0 63h-94v62h94a31 31 0 0 1 0 63h-94v62h94a31 31 0 0 1 0 63h-94v62h94a31 31 0 0 1 0 63h-94a156 156 0 0 1-156 156v94a31 31 0 0 1-63 0v-94h-62v94a31 31 0 0 1-63 0v-94h-62v94a31 31 0 0 1-63 0v-94h-62z m62-281h188a94 94 0 0 0 94-94v-188a94 94 0 0 0-94-93h-188a94 94 0 0 0-93 93v188a94 94 0 0 0 93 94" horiz-adv-x="1000" />

<glyph glyph-name="envelope" unicode="&#xe825;" d="M0 600a125 125 0 0 0 125 125h750a125 125 0 0 0 125-125v-500a125 125 0 0 0-125-125h-750a125 125 0 0 0-125 125v500z m125 63a63 63 0 0 1-62-63v-14l437-262 438 262v14a63 63 0 0 1-63 63h-750z m813-149l-295-177 295-181v358z m-3-430l-352 217-83-50-83 50-352-217a63 63 0 0 1 60-46h750a63 63 0 0 1 60 46z m-872 72l294 181-294 177v-358z" horiz-adv-x="1000" />

<glyph glyph-name="eye" unicode="&#xe826;" d="M1000 350s-187 344-500 344-500-344-500-344 188-344 500-344 500 344 500 344z m-927 0a821 821 0 0 0 104 128c81 80 191 153 323 153 133 0 242-73 323-153a821 821 0 0 0 104-128c-4-5-8-11-12-18-21-30-52-70-92-110-81-80-191-153-323-153-132 0-242 73-323 153a821 821 0 0 0-104 128z m427 156a156 156 0 1 1 0-312 156 156 0 0 1 0 312z m-219-156a219 219 0 1 0 438 0 219 219 0 0 0-438 0z" horiz-adv-x="1000" />

<glyph glyph-name="eye-slash" unicode="&#xe827;" d="M835 148c106 95 165 202 165 202s-187 344-500 344a439 439 0 0 1-174-37l48-48a372 372 0 0 0 126 22c133 0 242-73 323-153a821 821 0 0 0 104-128c-4-5-8-11-12-18-21-30-52-70-92-110-10-10-21-20-32-30l44-44z m-129 129a219 219 0 0 1-280 279l52-51a156 156 0 0 0 177-177l51-51z m-184-82l52-51a219 219 0 0 0-280 280l51-52a156 156 0 0 1 177-177z m-313 313c-11-10-22-20-32-30a821 821 0 0 1-104-128l12-18c21-30 52-70 92-110 81-80 191-153 323-153 45 0 87 8 126 22l48-48a439 439 0 0 0-174-37c-312 0-500 344-500 344s59 108 165 202l44-44z m644-555l-750 750 44 44 750-750-44-44z" horiz-adv-x="1000" />

<glyph glyph-name="facebook" unicode="&#xe828;" d="M1000 347c0 278-224 503-500 503-276 0-500-225-500-503 0-251 183-459 422-497v352h-127v145h127v111c0 126 75 196 189 196 55 0 112-10 112-10v-124h-63c-62 0-82-39-82-79v-94h139l-22-145h-117v-352c239 38 422 246 422 497z" horiz-adv-x="1000" />

<glyph glyph-name="laptop" unicode="&#xe829;" d="M844 663a31 31 0 0 0 31-32v-468h-750v468a31 31 0 0 0 31 32z m-688 62a94 94 0 0 1-93-94v-531h875v531a94 94 0 0 1-94 94z m-156-656h1000a94 94 0 0 0-94-94h-812a94 94 0 0 0-94 94" horiz-adv-x="1000" />

<glyph glyph-name="laptop-fill" unicode="&#xe82a;" d="M156 725a94 94 0 0 1-93-94v-531h875v531a94 94 0 0 1-94 94z m-156-656h1000a94 94 0 0 0-94-94h-812a94 94 0 0 0-94 94" horiz-adv-x="1000" />

<glyph glyph-name="linkedin" unicode="&#xe82b;" d="M0 778c0 40 33 72 73 72h854c40 0 73-32 73-72v-856c0-40-33-72-73-72h-854c-40 0-73 32-73 72v856z m309-765v451h-150v-451h150z m-75 513c52 0 85 35 85 78-1 44-33 78-84 78-51 0-85-34-85-78 0-43 33-78 83-78h1z m307-513v252c0 14 1 27 5 37 11 27 35 55 77 55 54 0 76-42 76-103v-241h150v259c0 139-74 203-173 203-80 0-115-44-135-74v-2h-1a346 346 0 0 0 1 2v63h-150c2-42 0-451 0-451h150z" horiz-adv-x="1000" />
</font>
</defs>
</svg>
